<svg width="28" height="28" viewBox="0 0 28 28" fill="none" xmlns="http://www.w3.org/2000/svg">
<path d="M14 0C21.7199 0 28 6.28009 28 14C28 21.7199 21.7199 28 14 28C6.28009 28 0 21.7199 0 14C0 6.28009 6.28009 0 14 0Z" fill="#F44336"/>
<path d="M8.84446 17.5058C8.38837 17.9621 8.38837 18.6993 8.84446 19.1556C9.07197 19.3831 9.37061 19.4974 9.66947 19.4974C9.96812 19.4974 10.2668 19.3831 10.4943 19.1556L14 15.6496L17.5058 19.1556C17.7333 19.3831 18.032 19.4974 18.3306 19.4974C18.6295 19.4974 18.9281 19.3831 19.1556 19.1556C19.6117 18.6993 19.6117 17.9621 19.1556 17.5058L15.6496 14L19.1556 10.4942C19.6117 10.0379 19.6117 9.30072 19.1556 8.84442C18.6993 8.38834 17.9621 8.38834 17.5058 8.84442L14 12.3504L10.4943 8.84442C10.038 8.38834 9.30076 8.38834 8.84446 8.84442C8.38837 9.30072 8.38837 10.0379 8.84446 10.4942L12.3504 14L8.84446 17.5058Z" fill="#FAFAFA"/>
</svg>
