<svg width="180" height="180" viewBox="0 0 180 180" fill="none" xmlns="http://www.w3.org/2000/svg">
<rect width="180" height="180" fill="white"/>
<path fill-rule="evenodd" clip-rule="evenodd" d="M120 60C120 76.575 106.575 90 90 90C73.425 90 60 76.575 60 60C60 43.425 73.425 30 90 30C106.575 30 120 43.425 120 60ZM30 135C30 115.05 69.975 105 90 105C110.025 105 150 115.05 150 135V142.5C150 146.625 146.625 150 142.5 150H37.5C33.375 150 30 146.625 30 142.5V135Z" fill="#14DF77" fill-opacity="0.54"/>
<path d="M83.6893 69.0727L76.3156 61.8436C75.9185 61.4534 75.3795 61.2342 74.8174 61.2342C74.2553 61.2342 73.7163 61.4534 73.3193 61.8436C72.4906 62.6561 72.4906 63.9686 73.3193 64.7811L82.2018 73.4894C83.0306 74.3019 84.3693 74.3019 85.1981 73.4894L107.681 51.4477C108.509 50.6352 108.509 49.3227 107.681 48.5102C107.284 48.1201 106.745 47.9009 106.182 47.9009C105.62 47.9009 105.081 48.1201 104.684 48.5102L83.6893 69.0727Z" fill="white"/>
</svg>
