<svg width="188" height="169" viewBox="0 0 188 169" fill="none" xmlns="http://www.w3.org/2000/svg">
<path fill-rule="evenodd" clip-rule="evenodd" d="M148.833 28.1667H116.09C112.8 19.9984 104.183 14.0834 94 14.0834C83.8167 14.0834 75.2 19.9984 71.91 28.1667H39.1667C30.55 28.1667 23.5 34.5042 23.5 42.25V140.833C23.5 148.579 30.55 154.917 39.1667 154.917H148.833C157.45 154.917 164.5 148.579 164.5 140.833V42.25C164.5 34.5042 157.45 28.1667 148.833 28.1667ZM94 28.1667C98.3083 28.1667 101.833 31.3355 101.833 35.2084C101.833 39.0813 98.3083 42.25 94 42.25C89.6917 42.25 86.1667 39.0813 86.1667 35.2084C86.1667 31.3355 89.6917 28.1667 94 28.1667ZM52.4835 103.513L72.7718 121.751C75.8268 124.497 80.8401 124.497 83.8168 121.751L135.438 75.3462C138.493 72.6 138.493 68.1637 135.438 65.4175C132.383 62.6712 127.448 62.6712 124.393 65.4175L78.3335 106.822L63.5285 93.5841C60.4734 90.8379 55.5385 90.8379 52.4835 93.5841C51.0166 94.8997 50.1923 96.6859 50.1923 98.5485C50.1923 100.411 51.0166 102.197 52.4835 103.513Z" fill="#14DF77" fill-opacity="0.5"/>
</svg>
